[{"note": 72, "duration": 102, "velocity": 95}, {"note": 76, "duration": 260, "velocity": 46}, {"note": 70, "duration": 302, "velocity": 118}, {"note": 58, "duration": 240, "velocity": 69}, {"note": 53, "duration": 54, "velocity": 48}, {"note": 54, "duration": 121, "velocity": 54}, {"note": 57, "duration": 272, "velocity": 78}, {"note": 61, "duration": 116, "velocity": 102}, {"note": 66, "duration": 25, "velocity": 95}, {"note": 69, "duration": 222, "velocity": 51}, {"note": 68, "duration": 358, "velocity": 47}, {"note": 66, "duration": 170, "velocity": 86}, {"note": 63, "duration": 144, "velocity": 112}, {"note": 62, "duration": 375, "velocity": 99}, {"note": 61, "duration": 204, "velocity": 74}, {"note": 62, "duration": 78, "velocity": 92}, {"note": 67, "duration": 149, "velocity": 85}, {"note": 74, "duration": 416, "velocity": 64}, {"note": 79, "duration": 63, "velocity": 92}, {"note": 79, "duration": 161, "velocity": 78}, {"note": 73, "duration": 241, "velocity": 82}, {"note": 64, "duration": 244, "velocity": 70}, {"note": 61, "duration": 89, "velocity": 110}, {"note": 63, "duration": 114, "velocity": 82}, {"note": 68, "duration": 305, "velocity": 98}, {"note": 73, "duration": 21, "velocity": 62}, {"note": 76, "duration": 264, "velocity": 47}, {"note": 76, "duration": 415, "velocity": 62}, {"note": 73, "duration": 257, "velocity": 58}, {"note": 67, "duration": 360, "velocity": 85}]