{
    "AMINOR": {
        "melodias": [
            {
                "note": 84,
                "duration": 96,
                "velocity": 114
            },
            {
                "note": 83,
                "duration": 96,
                "velocity": 87
            },
            {
                "note": 81,
                "duration": 96,
                "velocity": 119
            },
            {
                "note": 84,
                "duration": 384,
                "velocity": 97
            },
            {
                "note": 84,
                "duration": 48,
                "velocity": 89
            },
            {
                "note": 83,
                "duration": 48,
                "velocity": 105
            },
            {
                "note": 77,
                "duration": 96,
                "velocity": 103
            },
            {
                "note": 74,
                "duration": 96,
                "velocity": 120
            },
            {
                "note": 74,
                "duration": 96,
                "velocity": 115
            },
            {
                "note": 89,
                "duration": 96,
                "velocity": 69
            },
            {
                "note": 88,
                "duration": 96,
                "velocity": 102
            },
            {
                "note": 72,
                "duration": 48,
                "velocity": 117
            },
            {
                "note": 71,
                "duration": 48,
                "velocity": 88
            }
        ]
    },
    "F#MINOR": {
        "melodias": []
    },
    "D#MINOR": {
        "melodias": [
            {
                "note": 73,
                "duration": 288,
                "velocity": 83
            },
            {
                "note": 71,
                "duration": 48,
                "velocity": 75
            },
            {
                "note": 78,
                "duration": 96,
                "velocity": 75
            },
            {
                "note": 71,
                "duration": 48,
                "velocity": 75
            },
            {
                "note": 68,
                "duration": 48,
                "velocity": 75
            },
            {
                "note": 71,
                "duration": 96,
                "velocity": 75
            },
            {
                "note": 70,
                "duration": 96,
                "velocity": 75
            },
            {
                "note": 77,
                "duration": 192,
                "velocity": 83
            },
            {
                "note": 83,
                "duration": 48,
                "velocity": 83
            },
            {
                "note": 78,
                "duration": 48,
                "velocity": 83
            },
            {
                "note": 83,
                "duration": 48,
                "velocity": 80
            },
            {
                "note": 82,
                "duration": 48,
                "velocity": 73
            },
            {
                "note": 80,
                "duration": 192,
                "velocity": 73
            }
        ]
    },
    "GMINOR": {
        "melodias": [
            {
                "note": 70,
                "duration": 96,
                "velocity": 93
            },
            {
                "note": 69,
                "duration": 48,
                "velocity": 93
            },
            {
                "note": 67,
                "duration": 48,
                "velocity": 93
            },
            {
                "note": 65,
                "duration": 192,
                "velocity": 93
            },
            {
                "note": 62,
                "duration": 96,
                "velocity": 93
            },
            {
                "note": 62,
                "duration": 48,
                "velocity": 93
            },
            {
                "note": 63,
                "duration": 48,
                "velocity": 93
            },
            {
                "note": 70,
                "duration": 48,
                "velocity": 93
            },
            {
                "note": 69,
                "duration": 48,
                "velocity": 93
            },
            {
                "note": 67,
                "duration": 48,
                "velocity": 93
            },
            {
                "note": 65,
                "duration": 96,
                "velocity": 93
            },
            {
                "note": 75,
                "duration": 96,
                "velocity": 93
            },
            {
                "note": 74,
                "duration": 96,
                "velocity": 93
            }
        ]
    },
    "EMINOR": {
        "melodias": [
            {
                "note": 71,
                "duration": 192,
                "velocity": 87
            },
            {
                "note": 76,
                "duration": 96,
                "velocity": 87
            },
            {
                "note": 72,
                "duration": 48,
                "velocity": 87
            },
            {
                "note": 71,
                "duration": 48,
                "velocity": 87
            },
            {
                "note": 74,
                "duration": 96,
                "velocity": 87
            },
            {
                "note": 67,
                "duration": 96,
                "velocity": 87
            },
            {
                "note": 66,
                "duration": 96,
                "velocity": 87
            },
            {
                "note": 64,
                "duration": 96,
                "velocity": 87
            },
            {
                "note": 60,
                "duration": 96,
                "velocity": 87
            },
            {
                "note": 60,
                "duration": 96,
                "velocity": 87
            },
            {
                "note": 59,
                "duration": 288,
                "velocity": 87
            }
        ]
    },
    "FMINOR": {
        "melodias": [
            {
                "note": 80,
                "duration": 288,
                "velocity": 84
            },
            {
                "note": 77,
                "duration": 267,
                "velocity": 96
            }
        ]
    },
    "BMINOR": {
        "melodias": [
            {
                "note": 76,
                "duration": 192,
                "velocity": 84
            }
        ]
    },
    "CMINOR": {
        "melodias": [
            {
                "note": 72,
                "duration": 288,
                "velocity": 70
            },
            {
                "note": 74,
                "duration": 48,
                "velocity": 80
            },
            {
                "note": 75,
                "duration": 48,
                "velocity": 84
            },
            {
                "note": 72,
                "duration": 288,
                "velocity": 81
            },
            {
                "note": 68,
                "duration": 96,
                "velocity": 74
            },
            {
                "note": 70,
                "duration": 384,
                "velocity": 86
            },
            {
                "note": 68,
                "duration": 192,
                "velocity": 89
            },
            {
                "note": 67,
                "duration": 192,
                "velocity": 67
            }
        ]
    },
    "C#MINOR": {
        "melodias": [
            {
                "note": 76,
                "duration": 288,
                "velocity": 70
            },
            {
                "note": 75,
                "duration": 48,
                "velocity": 80
            },
            {
                "note": 73,
                "duration": 48,
                "velocity": 84
            },
            {
                "note": 71,
                "duration": 192,
                "velocity": 81
            },
            {
                "note": 75,
                "duration": 192,
                "velocity": 74
            },
            {
                "note": 73,
                "duration": 576,
                "velocity": 86
            },
            {
                "note": 75,
                "duration": 192,
                "velocity": 86
            }
        ]
    },
    "DMINOR": {
        "melodias": [
            {
                "note": 74,
                "duration": 384,
                "velocity": 79
            },
            {
                "note": 76,
                "duration": 336,
                "velocity": 87
            },
            {
                "note": 72,
                "duration": 96,
                "velocity": 90
            },
            {
                "note": 81,
                "duration": 48,
                "velocity": 88
            },
            {
                "note": 79,
                "duration": 336,
                "velocity": 82
            },
            {
                "note": 77,
                "duration": 192,
                "velocity": 91
            },
            {
                "note": 76,
                "duration": 96,
                "velocity": 94
            }
        ]
    }
}